<?xml version="1.0" encoding="utf-8"?>
<!-- Generator: Adobe Illustrator 16.0.0, SVG Export Plug-In . SVG Version: 6.00 Build 0)  -->
<!DOCTYPE svg PUBLIC "-//W3C//DTD SVG 1.1//EN" "http://www.w3.org/Graphics/SVG/1.1/DTD/svg11.dtd">
<svg version="1.1" id="Layer_1" xmlns="http://www.w3.org/2000/svg" xmlns:xlink="http://www.w3.org/1999/xlink" x="0px" y="0px"
	 width="1000px" height="568.379px" viewBox="-419.965 -274.172 1000 568.379"
	 enable-background="new -419.965 -274.172 1000 568.379" xml:space="preserve">
<g>
	<path opacity="0.3" fill="#646E7F" enable-background="new    " d="M-122.127,16.589c8.028-63.563-18.854-114.734-56.374-163.155
		c9.295,1.708,18.666,3.086,27.865,5.194c24.672,5.651,46.647,16.675,65.491,33.739c2.895,2.62,4.445,5.314,4.181,9.675
		c-1.643,26.321-6.416,51.919-16.781,76.273C-103.695-7.693-111.347,5.317-122.127,16.589z"/>
	<path opacity="0.7" fill="#646E7F" enable-background="new    " d="M-198.784,140.571c-23.004-2.382-44.007-7.657-62.525-20.146
		c-10.137-6.848-19.837-14.354-29.543-21.809c-1.403-1.079-2.564-3.619-2.443-5.388c2.387-34.524,11.378-67.113,29.477-96.837
		c3.416-5.606,7.836-10.593,12.529-15.757C-255.274,40.926-237.312,93.798-198.784,140.571z"/>
	<path opacity="0.2" fill="#646E7F" enable-background="new    " d="M-74.527-95.925c3.978,4.891,7.719,8.838,10.708,13.286
		c16.412,24.383,24.79,51.265,24.692,80.744c-0.004,2.914-1.058,4.698-3.34,6.461c-15.568,12.012-31.453,23.537-49.121,32.326
		c-14.2,7.059-29.379,11.154-44.807,14.434c-5.418,1.145-10.902,1.986-17.496,3.172C-101.586,17.542-82.144-35.505-74.527-95.925z"
		/>
	<path opacity="0.1" fill="#646E7F" enable-background="new    " d="M-40.139,10.304c-0.583,12.707-3.164,23.76-6.715,34.616
		c-7.142,21.813-20.497,39.531-36.457,55.577c-2.295,2.307-4.464,2.874-7.652,2.373c-9.995-1.566-20.105-2.444-30.075-4.157
		c-17.637-3.021-34.443-8.707-50.059-17.525c-10.248-5.787-20.303-11.91-30.333-18.356c29.127,0.435,57.687-2.271,85.591-10.491
		C-87.876,44.099-62.49,31.189-40.139,10.304z"/>
	<path opacity="0.5" fill="#646E7F" enable-background="new    " d="M-331.783-13.203c1.181-6.873,2.093-13.8,3.629-20.595
		c3.699-16.466,9.356-32.271,19.542-45.877c6.462-8.631,14.029-16.459,21.242-24.512c0.882-0.991,2.711-1.759,4.023-1.645
		c17.744,1.483,35.27,4.101,52.38,9.321c21.241,6.487,40.292,17.173,58.523,29.544c0.704,0.479,1.343,1.034,2.595,2.009
		C-231.479-71.076-283.995-50.955-331.783-13.203z"/>
	<path opacity="0.8" fill="#646E7F" enable-background="new    " d="M-94.85,108.94c-5.287,3.427-10.526,6.903-15.853,10.259
		c-18.17,11.419-37.399,20.126-59.08,21.976c-6.461,0.553-13.016,0.329-19.508-0.03c-1.833-0.107-4.135-1.541-5.266-3.071
		c-7.927-10.806-16.162-21.449-23.223-32.812c-9.005-14.484-16.151-30.014-20.692-46.535c-2.129-7.734-3.335-15.723-4.425-23.898
		C-201.829,76.175-153.824,102.769-94.85,108.94z"/>
	<path opacity="0.6" fill="#646E7F" enable-background="new    " d="M-300.254,88.658c-5.342-8.843-11.084-17.466-15.934-26.572
		c-10.228-19.178-14.957-39.852-15.803-61.533c-0.192-4.86,3.066-6.979,5.778-9.455c16.203-14.801,34.398-26.727,54.397-35.715
		c15.286-6.873,31.21-11.885,48.867-13.722c-44.149,39.468-69.865,87.796-75.075,146.658
		C-298.775,88.435-299.514,88.541-300.254,88.658z"/>
	<path opacity="0.4" fill="#646E7F" enable-background="new    " d="M-278.978-112.258c6.234-4.305,12.397-8.722,18.722-12.901
		c21.114-13.98,44.874-19.269,69.708-20.868c1.353-0.089,3.132,0.524,4.105,1.447c13.405,12.751,23.952,27.677,32.984,43.74
		c10.542,18.735,18.423,38.493,23.004,59.534c0.188,0.809,0.248,1.645,0.562,3.845c-40.717-43.891-90.041-67.919-148.381-73.494
		C-278.511-111.391-278.745-111.822-278.978-112.258z"/>
</g>
<g>
	<path fill="#3C6E7F" stroke="#3C6E7F" stroke-width="0.5" stroke-miterlimit="10" d="M115.424-115.552
		c-25.175,12.797-50.003,25.352-74.143,39.405l-74.487,42.167C-58.034-20.174-82.519-6.368-105.281,9.189
		c-15.174,10.289-30.344,21.083-39.653,34.636c-0.684,3.021,16.208-0.253,18.275-0.502c15.175-2.763,30-6.274,45.173-9.036
		C-67,31.52-52.177,29.016-37.347,27.505c25.864-2.504,53.105-3.259,78.279,1.51c2.763,0.507,5.174,1.004,7.587,1.754
		c0.694,0.253,3.107,0.75,1.723,0.75c-5.514-0.497-10.688-1.247-16.207-1.744c-13.447-1.257-26.897-1.763-40.688-1.257
		c-29.658,0.751-58.624,5.267-87.249,11.038c-14.48,2.262-28.964,6.275-43.105,8.034c-3.102,0.248-7.242,0.755-10-0.503
		c-2.412-1.252-2.067-3.516-1.039-5.27c2.423-4.77,6.898-9.031,11.034-13.057c18.625-17.819,42.42-32.877,65.522-47.44
		c24.139-14.812,48.624-28.866,73.453-42.919c24.829-14.308,49.998-27.865,76.9-40.166c12.072-6.023,25.518-10.292,36.896-17.07
		c-10.345-0.249-20,0.25-30.344,0.755c-10.688,0.502-21.727,1.254-32.417,2.512c-20.682,2.007-41.726,5.273-61.381,10.792
		c-11.378,3.267-29.998,10.795-38.619,19.079c-1.724,1.754-4.135,3.763-6.208,5.522c-1.723,1.505-4.485,2.257-4.824-0.249
		c-0.346-4.769,5.514-9.29,9.655-12.301c5.519-3.512,11.728-6.274,18.275-8.537c13.102-4.765,27.586-8.028,42.071-10.54
		c14.83-2.513,30.35-4.272,45.518-5.777c18.966-1.753,38.281-3.264,57.591-3.513c1.383,0,3.106,0,4.136,0.758
		C121.282-118.816,117.147-116.31,115.424-115.552z"/>
	<path fill="#3C6E7F" stroke="#3C6E7F" stroke-width="0.5" stroke-miterlimit="10" d="M190.1-33.579
		c-11.207,9.062-22.407,18.575-34.86,27.183C135.945,7.202,115.405,19.888,91.75,29.852c-18.676,8.155-50.418,17.217-62.252-2.721
		c-6.219-11.774,0.623-25.372,7.47-36.246c16.188-24.915,57.889-48.928,84.659-56.634c8.089-2.266,17.426-4.075,24.899-1.812
		c8.089,2.268,11.825,8.153,10.584,14.049c-1.248,6.34-6.229,12.232-14.323,17.67C122.869-22.7,81.163-8.656,51.904-8.2
		C45.68,0.401,39.457,11.277,41.322,22.153c1.242,3.624,3.729,7.704,8.713,9.062c11.828,3.174,26.146-0.906,36.729-4.084
		c24.276-8.15,45.437-21.743,64.741-34.885c3.111-2.268,44.818-33.977,45.441-33.526C196.946-39.922,193.211-36.293,190.1-33.579z
		 M62.486-21.798c-3.111,3.625-6.223,7.25-8.712,10.879c6.229,0,12.448-0.91,18.678-2.263c24.895-5.446,49.795-14.954,66.602-29.454
		c4.98-4.532,14.935-15.861,7.469-21.299c-8.098-5.433-21.164-0.451-28.64,2.719C94.857-52.154,76.181-37.659,62.486-21.798z"/>
	<path fill="#3C6E7F" stroke="#3C6E7F" stroke-width="0.5" stroke-miterlimit="10" d="M229.929-26.329
		c-18.047,13.593-37.342,26.73-57.261,38.959c-6.228,3.624-46.688,30.354-56.646,24.014c-6.848-4.069-2.495-12.686,0.618-17.673
		c17.435-24.92,37.975-49.384,57.271-73.848c3.74-4.536,8.722-9.067,15.563-11.781c1.866-0.452,6.229-1.812,7.471,0
		c1.241,1.812-1.247,4.079-1.87,5.433c-22.407,30.812-52.906,61.168-73.452,93.333c11.2,0,23.652-8.15,32.364-12.681
		c13.076-7.248,25.519-14.951,37.348-22.655l33.618-23.111c0.623-0.907,20.541-15.402,21.782-14.495
		C247.982-39.922,231.799-27.682,229.929-26.329z M211.882-115.131c3.111-4.536,9.335-7.701,14.317-7.701
		c4.358,0,6.223,3.621,3.111,8.152c-3.111,4.08-9.34,7.701-14.317,7.245C210.012-107.43,208.77-111.054,211.882-115.131z"/>
	<path fill="#3C6E7F" stroke="#3C6E7F" stroke-width="0.5" stroke-miterlimit="10" d="M287.823-19.986
		c0,0.451-25.523-0.904-27.394-0.904c-4.978,0-9.335,0-13.694,0.451c3.112,6.348,3.735,13.142,1.246,19.936
		c-6.228,18.122-29.253,31.258-52.911,36.696c-10.582,2.262-26.146,4.532-35.482-0.45c-9.959-4.987-4.353-15.854,0.623-22.194
		c15.564-18.131,42.953-29.002,70.342-34.443c-7.47-10.42-22.411-18.58-19.295-31.714c1.865-6.798,8.089-12.683,16.188-15.855
		c8.712-3.626,28.006-7.25,34.854,0.451c4.359,4.531-0.623,10.874-3.734,13.592c-3.113,2.719-12.448,7.705-16.183,6.799
		c3.729-0.451,9.958-4.531,13.689-8.152c3.739-3.628,6.228-10.422-1.861-11.781c-13.075-2.719-29.887,4.078-32.994,13.59
		c-3.734,13.598,18.672,19.936,24.277,31.266c4.977-0.454,9.958-0.454,14.936-0.454C262.923-23.159,288.447-21.798,287.823-19.986z
		 M232.422-18.174c-23.652,4.528-47.311,13.139-62.247,27.18c-6.229,5.444-16.811,17.673-9.341,23.111
		c4.359,3.173,12.448,2.717,16.812,2.266c6.219-0.451,12.448-2.266,18.053-4.08c22.407-7.704,42.33-23.105,39.214-42.593
		C234.294-14.548,233.67-16.36,232.422-18.174z"/>
</g>
<g>
	<g>
		<path fill="#646E7F" d="M-45.735,135.093h-6.973V62.531h6.973v8.308h0.304c1.981-3.147,4.628-5.521,7.942-7.126
			c3.314-1.607,6.68-2.413,10.091-2.413c3.761,0,7.156,0.649,10.201,1.946c3.036,1.298,5.631,3.072,7.785,5.331
			c2.154,2.262,3.821,4.916,5.022,7.999c1.196,3.075,1.795,6.386,1.795,9.938s-0.599,6.868-1.795,9.943
			c-1.201,3.077-2.868,5.742-5.022,7.993c-2.154,2.255-4.749,4.034-7.785,5.331c-3.045,1.297-6.44,1.946-10.201,1.946
			c-3.412,0-6.777-0.805-10.091-2.412c-3.314-1.602-5.96-3.908-7.942-6.914h-0.304V135.093z M-9.978,86.515
			c0-2.661-0.41-5.181-1.228-7.532c-0.82-2.362-1.995-4.414-3.532-6.157c-1.534-1.734-3.436-3.127-5.686-4.146
			c-2.262-1.024-4.82-1.531-7.689-1.531c-2.661,0-5.124,0.496-7.378,1.48c-2.255,0.992-4.202,2.361-5.838,4.105
			c-1.643,1.738-2.924,3.79-3.842,6.144c-0.927,2.36-1.388,4.9-1.388,7.637c0,2.73,0.461,5.275,1.383,7.633
			c0.918,2.362,2.2,4.393,3.843,6.097c1.641,1.708,3.588,3.061,5.838,4.049c2.256,0.999,4.719,1.491,7.379,1.491
			c2.87,0,5.428-0.492,7.688-1.491c2.256-0.988,4.151-2.355,5.687-4.1c1.536-1.744,2.712-3.79,3.532-6.152
			C-10.384,91.689-9.978,89.175-9.978,86.515z"/>
		<path fill="#646E7F" d="M14.725,70.423c1.297-2.808,3.451-5.022,6.456-6.659c3.005-1.643,6.219-2.464,9.64-2.464
			c6.072,0,10.638,1.815,13.679,5.434c3.036,3.623,4.557,8.403,4.557,14.348v29.411h-6.964V83.949c0-2.519-0.213-4.814-0.618-6.866
			c-0.416-2.048-1.11-3.812-2.104-5.276c-0.988-1.47-2.326-2.609-3.993-3.438c-1.678-0.82-3.781-1.23-6.305-1.23
			c-1.846,0-3.64,0.375-5.378,1.124c-1.738,0.756-3.305,1.901-4.668,3.438c-1.363,1.54-2.453,3.486-3.279,5.839
			c-0.82,2.356-1.226,5.144-1.226,8.352v24.597h-6.97V33.02h6.97v37.403H14.725L14.725,70.423z"/>
		<path fill="#646E7F" d="M109.718,86.515c0,3.624-0.629,6.969-1.891,10.039c-1.263,3.083-3.026,5.742-5.282,7.994
			c-2.255,2.254-4.956,4.013-8.094,5.274c-3.147,1.268-6.6,1.906-10.354,1.906c-3.689,0-7.104-0.639-10.247-1.906
			c-3.143-1.262-5.839-3.021-8.1-5.274c-2.25-2.252-4.009-4.911-5.275-7.994c-1.268-3.07-1.896-6.415-1.896-10.039
			c0-3.625,0.629-6.97,1.896-10.05c1.267-3.072,3.025-5.732,5.275-7.988c2.261-2.255,4.957-4.014,8.1-5.281
			c3.143-1.267,6.558-1.896,10.247-1.896c3.755,0,7.207,0.634,10.354,1.896c3.138,1.268,5.839,3.026,8.094,5.281
			c2.256,2.256,4.015,4.916,5.282,7.988C109.094,79.545,109.718,82.89,109.718,86.515z M102.338,86.515
			c0-2.661-0.426-5.181-1.278-7.532c-0.855-2.362-2.067-4.414-3.633-6.157c-1.577-1.734-3.492-3.127-5.742-4.146
			c-2.251-1.024-4.779-1.531-7.583-1.531c-2.802,0-5.311,0.507-7.53,1.531c-2.226,1.023-4.12,2.411-5.691,4.146
			c-1.566,1.743-2.783,3.79-3.64,6.157c-0.856,2.352-1.282,4.871-1.282,7.532c0,2.66,0.426,5.175,1.282,7.526
			c0.856,2.362,2.068,4.408,3.64,6.152s3.466,3.111,5.691,4.1c2.214,0.999,4.729,1.491,7.53,1.491c2.804,0,5.332-0.492,7.583-1.491
			c2.261-0.988,4.165-2.355,5.742-4.1c1.565-1.744,2.777-3.79,3.633-6.152C101.912,91.689,102.338,89.175,102.338,86.515z"/>
		<path fill="#646E7F" d="M141.282,68.375h-13.527v27.977c0,1.784,0.173,3.254,0.517,4.409c0.34,1.161,0.836,2.067,1.49,2.717
			c0.644,0.649,1.413,1.095,2.301,1.327c0.887,0.244,1.845,0.355,2.868,0.355c0.953,0,1.962-0.132,3.025-0.41
			c1.06-0.269,2.063-0.649,3.026-1.126l0.305,6.048c-1.228,0.476-2.509,0.835-3.837,1.074c-1.327,0.237-2.787,0.364-4.358,0.364
			c-1.297,0-2.666-0.178-4.101-0.517c-1.439-0.346-2.768-0.984-4.004-1.946c-1.231-0.959-2.234-2.256-3.021-3.897
			c-0.785-1.638-1.177-3.786-1.177-6.452V68.369h-9.942v-5.838h9.942V49.005h6.965v13.526h13.527V68.375z"/>
		<path fill="#646E7F" d="M194.782,86.515c0,3.624-0.64,6.969-1.901,10.039c-1.272,3.083-3.025,5.742-5.276,7.994
			c-2.26,2.254-4.951,4.013-8.099,5.274c-3.142,1.268-6.594,1.906-10.354,1.906c-3.689,0-7.106-0.639-10.249-1.906
			c-3.146-1.262-5.844-3.021-8.099-5.274c-2.255-2.252-4.009-4.911-5.28-7.994c-1.268-3.07-1.896-6.415-1.896-10.039
			c0-3.625,0.633-6.97,1.896-10.05c1.266-3.072,3.025-5.732,5.28-7.988c2.255-2.255,4.952-4.014,8.099-5.281
			c3.138-1.267,6.56-1.896,10.249-1.896c3.76,0,7.212,0.634,10.354,1.896c3.147,1.263,5.839,3.026,8.099,5.281
			c2.256,2.256,4.004,4.916,5.276,7.988C194.143,79.545,194.782,82.89,194.782,86.515z M187.403,86.515
			c0-2.661-0.432-5.181-1.282-7.532c-0.856-2.362-2.068-4.414-3.635-6.157c-1.575-1.734-3.486-3.127-5.742-4.146
			c-2.254-1.024-4.778-1.531-7.581-1.531c-2.804,0-5.312,0.507-7.526,1.531c-2.225,1.023-4.115,2.411-5.691,4.146
			c-1.571,1.743-2.783,3.79-3.639,6.157c-0.857,2.352-1.288,4.871-1.288,7.532c0,2.66,0.431,5.175,1.288,7.526
			c0.855,2.362,2.062,4.408,3.639,6.152c1.576,1.744,3.467,3.111,5.691,4.1c2.214,0.999,4.723,1.491,7.526,1.491
			c2.803,0,5.331-0.492,7.581-1.491c2.256-0.988,4.167-2.355,5.742-4.1c1.566-1.744,2.778-3.79,3.635-6.152
			C186.971,91.689,187.403,89.175,187.403,86.515z"/>
		<path fill="#646E7F" d="M207.28,120.121c1.911,2.464,4.526,4.552,7.841,6.26c3.31,1.702,6.812,2.56,10.502,2.56
			c3.42,0,6.325-0.496,8.712-1.486c2.392-0.986,4.322-2.345,5.787-4.049c1.465-1.713,2.544-3.71,3.229-5.995
			c0.689-2.291,1.03-4.733,1.03-7.328v-9.022h-0.208c-1.84,3.01-4.45,5.332-7.836,6.97c-3.387,1.643-6.822,2.463-10.299,2.463
			c-3.756,0-7.156-0.612-10.197-1.845c-3.036-1.228-5.636-2.919-7.789-5.073c-2.149-2.153-3.822-4.729-5.018-7.734
			c-1.196-3.005-1.795-6.254-1.795-9.735c0-3.417,0.599-6.63,1.795-9.64c1.195-3.001,2.868-5.626,5.018-7.888
			c2.153-2.259,4.753-4.022,7.789-5.331c3.041-1.297,6.441-1.946,10.197-1.946c3.477,0,6.898,0.821,10.247,2.464
			c3.351,1.632,5.976,3.992,7.892,7.065h0.208v-8.304h6.964v47.557c0,2.595-0.354,5.356-1.075,8.296
			c-0.714,2.939-2.047,5.646-3.993,8.099c-1.946,2.464-4.597,4.512-7.947,6.148c-3.345,1.637-7.679,2.457-13.015,2.457
			c-4.435,0-8.672-0.851-12.706-2.563c-4.029-1.714-7.476-4.059-10.354-7.065L207.28,120.121z M208.614,85.896
			c0,2.528,0.41,4.92,1.226,7.172c0.822,2.26,2.002,4.241,3.538,5.939c1.535,1.713,3.437,3.066,5.686,4.055
			c2.261,0.988,4.82,1.48,7.688,1.48c2.666,0,5.125-0.442,7.375-1.329c2.261-0.887,4.201-2.154,5.844-3.79
			c1.632-1.638,2.919-3.6,3.847-5.891c0.918-2.291,1.384-4.835,1.384-7.637c0-2.52-0.461-4.922-1.384-7.167
			c-0.928-2.265-2.209-4.241-3.847-5.945c-1.643-1.703-3.588-3.081-5.844-4.104c-2.256-1.024-4.709-1.531-7.375-1.531
			c-2.868,0-5.428,0.507-7.688,1.531c-2.249,1.023-4.145,2.392-5.686,4.104c-1.536,1.704-2.716,3.681-3.538,5.945
			C209.029,80.975,208.614,83.377,208.614,85.896z"/>
		<path fill="#646E7F" d="M264.364,68.061c-0.071-2.052-0.168-3.893-0.311-5.529h6.671c0.137,1.299,0.232,2.732,0.299,4.303
			c0.071,1.577,0.111,2.869,0.111,3.898h0.203c1.363-2.803,3.42-5.074,6.147-6.816c2.737-1.743,5.809-2.616,9.224-2.616
			c0.888,0,1.698,0.031,2.407,0.102c0.716,0.071,1.454,0.202,2.205,0.415l-0.917,6.66c-0.41-0.137-1.095-0.278-2.048-0.416
			c-0.958-0.131-1.915-0.203-2.873-0.203c-1.846,0-3.619,0.336-5.327,1.025c-1.708,0.679-3.193,1.753-4.455,3.218
			c-1.267,1.465-2.291,3.34-3.071,5.621c-0.791,2.285-1.181,5.026-1.181,8.23v24.54h-6.97V73.083
			C264.465,71.791,264.428,70.113,264.364,68.061z"/>
		<path fill="#646E7F" d="M325.338,79.449c0-4.135-1.09-7.222-3.284-9.259c-2.189-2.032-5.356-3.052-9.527-3.052
			c-2.863,0-5.529,0.506-7.993,1.541c-2.463,1.019-4.546,2.392-6.254,4.095l-3.893-4.612c1.986-1.982,4.597-3.618,7.84-4.921
			c3.25-1.298,6.919-1.946,11.019-1.946c2.595,0,5.023,0.359,7.273,1.08c2.255,0.72,4.236,1.793,5.95,3.229
			c1.713,1.439,3.035,3.244,3.993,5.438c0.964,2.189,1.435,4.742,1.435,7.683v21.003c0,1.844,0.07,3.761,0.208,5.737
			c0.142,1.986,0.339,3.659,0.618,5.022h-6.254c-0.208-1.161-0.381-2.429-0.517-3.792c-0.138-1.363-0.208-2.695-0.208-3.993h-0.204
			c-2.189,3.209-4.661,5.514-7.429,6.918c-2.772,1.399-6.092,2.099-9.99,2.099c-1.844,0-3.739-0.259-5.687-0.766
			c-1.946-0.513-3.729-1.354-5.326-2.519c-1.606-1.165-2.938-2.672-3.999-4.531c-1.064-1.845-1.592-4.111-1.592-6.781
			c0-3.7,0.938-6.634,2.818-8.799c1.875-2.158,4.384-3.766,7.537-4.829c3.143-1.065,6.74-1.749,10.805-2.063
			c4.064-0.304,8.281-0.461,12.655-0.461v-1.521H325.338z M323.286,86.515c-2.868,0-5.758,0.116-8.656,0.359
			c-2.905,0.233-5.534,0.72-7.892,1.43c-2.356,0.72-4.288,1.759-5.788,3.132c-1.506,1.362-2.255,3.173-2.255,5.433
			c0,1.703,0.324,3.143,0.973,4.298c0.648,1.166,1.525,2.109,2.615,2.818c1.089,0.719,2.306,1.236,3.639,1.541
			c1.333,0.304,2.682,0.461,4.05,0.461c2.458,0,4.647-0.426,6.563-1.283c1.904-0.851,3.513-2.017,4.814-3.481
			c1.298-1.469,2.286-3.156,2.976-5.073c0.679-1.905,1.018-3.927,1.018-6.052V86.52h-2.057V86.515z"/>
		<path fill="#646E7F" d="M351.78,135.093h-6.97V62.531h6.97v8.308h0.299c1.986-3.147,4.632-5.521,7.952-7.126
			c3.309-1.607,6.675-2.413,10.09-2.413c3.767,0,7.151,0.649,10.203,1.946c3.041,1.298,5.631,3.072,7.785,5.331
			c2.153,2.262,3.831,4.916,5.021,7.999c1.197,3.075,1.789,6.386,1.789,9.938s-0.588,6.868-1.789,9.943
			c-1.196,3.077-2.868,5.742-5.021,7.993c-2.154,2.255-4.744,4.034-7.785,5.331c-3.046,1.297-6.437,1.946-10.203,1.946
			c-3.415,0-6.781-0.805-10.09-2.412c-3.32-1.602-5.966-3.908-7.952-6.914h-0.299V135.093z M387.535,86.515
			c0-2.661-0.406-5.181-1.222-7.532c-0.815-2.362-2.002-4.414-3.532-6.157c-1.541-1.734-3.436-3.127-5.691-4.146
			c-2.256-1.024-4.82-1.531-7.684-1.531c-2.661,0-5.124,0.496-7.38,1.48c-2.25,0.992-4.201,2.361-5.839,4.105
			c-1.632,1.738-2.919,3.79-3.836,6.144c-0.923,2.36-1.389,4.905-1.389,7.642s0.466,5.281,1.389,7.632
			c0.917,2.363,2.204,4.399,3.836,6.104c1.638,1.702,3.594,3.05,5.839,4.044c2.256,0.993,4.719,1.49,7.38,1.49
			c2.868,0,5.434-0.497,7.684-1.49c2.26-0.983,4.15-2.356,5.691-4.1c1.53-1.744,2.717-3.786,3.532-6.149
			C387.129,91.689,387.535,89.175,387.535,86.515z"/>
		<path fill="#646E7F" d="M412.242,70.423c1.292-2.808,3.441-5.022,6.453-6.659c3.004-1.643,6.217-2.464,9.634-2.464
			c6.077,0,10.638,1.815,13.679,5.434c3.042,3.623,4.562,8.403,4.562,14.348v29.411h-6.965V83.949c0-2.519-0.213-4.814-0.612-6.866
			c-0.416-2.048-1.116-3.812-2.109-5.276c-0.988-1.47-2.32-2.609-3.987-3.438c-1.684-0.82-3.787-1.23-6.301-1.23
			c-1.845,0-3.645,0.375-5.388,1.124c-1.728,0.756-3.29,1.901-4.652,3.438c-1.368,1.54-2.463,3.486-3.284,5.839
			c-0.821,2.356-1.227,5.144-1.227,8.352v24.597h-6.974V33.02h6.974v37.403H412.242L412.242,70.423z"/>
		<path fill="#646E7F" d="M476.087,103.012h0.202l14.865-40.48h7.582l-23.881,60.357c-1.44,3.69-3.265,6.648-5.483,8.864
			c-2.227,2.226-5.423,3.34-9.585,3.34c-2.129,0-4.206-0.213-6.26-0.618l0.725-6.355c1.633,0.548,3.346,0.821,5.125,0.821
			c2.392,0,4.267-0.74,5.636-2.2c1.363-1.476,2.56-3.568,3.584-6.299l3.892-10.05l-20.501-47.86h7.8L476.087,103.012z"/>
	</g>
</g>
</svg>
