<?xml version="1.0" encoding="utf-8"?>
<!-- Generator: Adobe Illustrator 16.0.0, SVG Export Plug-In . SVG Version: 6.00 Build 0)  -->
<!DOCTYPE svg PUBLIC "-//W3C//DTD SVG 1.1//EN" "http://www.w3.org/Graphics/SVG/1.1/DTD/svg11.dtd">
<svg version="1.1" id="Layer_1" xmlns="http://www.w3.org/2000/svg" xmlns:xlink="http://www.w3.org/1999/xlink" x="0px" y="0px"
	 width="160.071px" height="55.508px" viewBox="0 0 160.071 55.508" enable-background="new 0 0 160.071 55.508"
	 xml:space="preserve">
<g>
	<path opacity="0.3" fill-rule="evenodd" clip-rule="evenodd" fill="#646E7F" d="M40.44,31.438C41.987,19.19,36.807,9.33,29.577,0
		c1.791,0.329,3.597,0.595,5.37,1.001c4.753,1.089,8.988,3.213,12.619,6.501c0.557,0.505,0.856,1.024,0.805,1.864
		c-0.316,5.072-1.236,10.004-3.233,14.697C43.991,26.759,42.517,29.266,40.44,31.438z"/>
	<path opacity="0.7" fill-rule="evenodd" clip-rule="evenodd" fill="#646E7F" d="M25.669,55.327
		c-4.432-0.459-8.479-1.475-12.048-3.882c-1.953-1.319-3.822-2.766-5.692-4.202c-0.271-0.208-0.494-0.697-0.471-1.038
		c0.46-6.652,2.193-12.932,5.68-18.659c0.658-1.08,1.51-2.041,2.414-3.036C14.784,36.127,18.245,46.315,25.669,55.327z"/>
	<path opacity="0.2" fill-rule="evenodd" clip-rule="evenodd" fill="#646E7F" d="M49.612,9.758c0.766,0.942,1.487,1.703,2.063,2.56
		c3.162,4.698,4.776,9.878,4.758,15.558c-0.001,0.562-0.204,0.905-0.644,1.245c-3,2.315-6.06,4.535-9.465,6.229
		c-2.736,1.36-5.661,2.149-8.633,2.781c-1.044,0.221-2.101,0.382-3.371,0.611C44.398,31.621,48.144,21.4,49.612,9.758z"/>
	<path opacity="0.1" fill-rule="evenodd" clip-rule="evenodd" fill="#646E7F" d="M56.238,30.227c-0.113,2.448-0.61,4.577-1.294,6.67
		c-1.376,4.203-3.95,7.617-7.025,10.709c-0.442,0.444-0.86,0.553-1.474,0.456c-1.926-0.301-3.874-0.47-5.795-0.8
		c-3.399-0.583-6.637-1.678-9.646-3.377c-1.974-1.115-3.912-2.295-5.845-3.537c5.613,0.083,11.116-0.438,16.493-2.022
		C47.039,36.738,51.931,34.251,56.238,30.227z"/>
	<path opacity="0.5" fill-rule="evenodd" clip-rule="evenodd" fill="#646E7F" d="M0.042,25.697c0.228-1.324,0.404-2.659,0.699-3.968
		c0.713-3.173,1.803-6.218,3.766-8.84C5.752,11.226,7.21,9.718,8.6,8.166c0.17-0.191,0.522-0.339,0.775-0.317
		c3.419,0.286,6.796,0.79,10.093,1.796c4.093,1.25,7.764,3.309,11.276,5.693c0.136,0.092,0.259,0.199,0.5,0.387
		C19.369,14.546,9.25,18.423,0.042,25.697z"/>
	<path opacity="0.8" fill-rule="evenodd" clip-rule="evenodd" fill="#646E7F" d="M45.696,49.233
		c-1.019,0.659-2.029,1.33-3.055,1.976c-3.501,2.2-7.206,3.878-11.384,4.234c-1.245,0.107-2.508,0.064-3.759-0.006
		c-0.353-0.02-0.797-0.296-1.014-0.591c-1.528-2.082-3.115-4.133-4.475-6.322c-1.735-2.792-3.112-5.784-3.987-8.968
		c-0.41-1.49-0.643-3.029-0.853-4.604C25.082,42.919,34.332,48.043,45.696,49.233z"/>
	<path opacity="0.6" fill-rule="evenodd" clip-rule="evenodd" fill="#646E7F" d="M6.117,45.324c-1.029-1.704-2.135-3.365-3.07-5.12
		c-1.971-3.695-2.882-7.678-3.045-11.857c-0.037-0.936,0.591-1.344,1.113-1.821c3.123-2.852,6.628-5.15,10.482-6.882
		c2.945-1.324,6.014-2.29,9.416-2.644C12.506,24.605,7.551,33.917,6.547,45.259C6.403,45.281,6.26,45.302,6.117,45.324z"/>
	<path opacity="0.4" fill-rule="evenodd" clip-rule="evenodd" fill="#646E7F" d="M10.217,6.611c1.201-0.83,2.389-1.681,3.607-2.486
		c4.069-2.694,8.647-3.713,13.432-4.021c0.261-0.017,0.604,0.101,0.791,0.279c2.583,2.457,4.615,5.333,6.356,8.428
		c2.031,3.61,3.549,7.417,4.432,11.471c0.036,0.156,0.048,0.317,0.109,0.741c-7.846-8.457-17.35-13.087-28.591-14.161
		C10.307,6.778,10.262,6.695,10.217,6.611z"/>
</g>
<g>
	<path fill="#3C6E7F" stroke="#3C6E7F" stroke-width="0.5" stroke-miterlimit="10" d="M86.212,5.976
		c-4.85,2.466-9.635,4.885-14.286,7.593l-14.353,8.125c-4.784,2.66-9.501,5.32-13.887,8.318c-2.924,1.982-5.847,4.062-7.641,6.674
		c-0.132,0.581,3.123-0.049,3.522-0.097c2.923-0.532,5.78-1.209,8.704-1.741c2.791-0.533,5.647-1.016,8.505-1.307
		c4.983-0.483,10.232-0.628,15.083,0.291c0.532,0.097,0.997,0.193,1.462,0.338c0.133,0.049,0.598,0.145,0.332,0.145
		c-1.063-0.096-2.06-0.241-3.123-0.337c-2.591-0.242-5.183-0.339-7.84-0.242c-5.715,0.145-11.296,1.015-16.812,2.127
		c-2.79,0.436-5.581,1.209-8.305,1.548c-0.598,0.048-1.396,0.145-1.927-0.097c-0.465-0.241-0.399-0.677-0.2-1.015
		c0.466-0.919,1.329-1.741,2.126-2.516c3.588-3.434,8.173-6.335,12.625-9.141c4.651-2.854,9.369-5.562,14.153-8.27
		c4.784-2.757,9.634-5.369,14.817-7.739c2.326-1.161,4.917-1.983,7.11-3.289c-1.994-0.048-3.854,0.048-5.847,0.145
		c-2.06,0.097-4.187,0.242-6.246,0.484c-3.986,0.387-8.04,1.016-11.827,2.08c-2.193,0.629-5.781,2.08-7.442,3.676
		c-0.332,0.338-0.797,0.725-1.196,1.064c-0.332,0.29-0.864,0.435-0.93-0.048c-0.066-0.919,1.063-1.79,1.861-2.37
		c1.063-0.677,2.259-1.209,3.521-1.645c2.525-0.918,5.316-1.547,8.107-2.031c2.857-0.484,5.847-0.823,8.77-1.113
		c3.654-0.338,7.376-0.629,11.097-0.677c0.266,0,0.598,0,0.797,0.146C87.341,5.347,86.544,5.83,86.212,5.976z"/>
	<path fill="#3C6E7F" stroke="#3C6E7F" stroke-width="0.5" stroke-miterlimit="10" d="M100.601,21.771
		c-2.159,1.746-4.318,3.579-6.717,5.238c-3.718,2.62-7.676,5.064-12.233,6.984c-3.599,1.571-9.715,3.318-11.995-0.524
		c-1.199-2.269,0.12-4.889,1.439-6.984c3.119-4.801,11.154-9.428,16.312-10.913c1.559-0.436,3.358-0.785,4.798-0.349
		c1.559,0.437,2.279,1.571,2.039,2.707c-0.24,1.222-1.2,2.357-2.759,3.405c-3.838,2.532-11.874,5.238-17.512,5.326
		c-1.199,1.658-2.399,3.753-2.039,5.849c0.239,0.698,0.719,1.484,1.679,1.746c2.279,0.611,5.038-0.175,7.077-0.787
		c4.677-1.571,8.755-4.19,12.474-6.722c0.6-0.437,8.636-6.547,8.756-6.46C101.92,20.549,101.2,21.248,100.601,21.771z
		 M76.012,24.041c-0.6,0.698-1.199,1.397-1.679,2.096c1.2,0,2.399-0.175,3.599-0.436c4.797-1.049,9.595-2.881,12.833-5.675
		c0.96-0.873,2.878-3.056,1.439-4.104c-1.56-1.047-4.078-0.087-5.518,0.524C82.249,18.192,78.651,20.985,76.012,24.041z"/>
	<path fill="#3C6E7F" stroke="#3C6E7F" stroke-width="0.5" stroke-miterlimit="10" d="M108.276,23.168
		c-3.478,2.619-7.196,5.15-11.034,7.507c-1.2,0.698-8.996,5.849-10.915,4.627c-1.319-0.785-0.48-2.445,0.12-3.405
		c3.359-4.802,7.317-9.516,11.035-14.23c0.72-0.874,1.68-1.747,2.999-2.27c0.359-0.087,1.2-0.349,1.439,0
		c0.239,0.349-0.24,0.786-0.36,1.047c-4.318,5.937-10.195,11.786-14.154,17.984c2.159,0,4.558-1.571,6.237-2.444
		c2.519-1.396,4.917-2.881,7.196-4.365l6.478-4.453c0.12-0.175,3.958-2.968,4.197-2.793
		C111.754,20.549,108.636,22.907,108.276,23.168z M104.798,6.057c0.6-0.874,1.799-1.484,2.759-1.484c0.84,0,1.199,0.698,0.599,1.571
		c-0.599,0.786-1.799,1.484-2.758,1.396C104.438,7.541,104.198,6.843,104.798,6.057z"/>
	<path fill="#3C6E7F" stroke="#3C6E7F" stroke-width="0.5" stroke-miterlimit="10" d="M119.431,24.39
		c0,0.087-4.918-0.174-5.278-0.174c-0.959,0-1.799,0-2.639,0.087c0.6,1.223,0.72,2.532,0.24,3.841
		c-1.2,3.492-5.637,6.023-10.195,7.071c-2.039,0.436-5.038,0.873-6.837-0.087c-1.919-0.961-0.839-3.055,0.12-4.277
		c2.999-3.493,8.276-5.588,13.554-6.636c-1.44-2.008-4.319-3.58-3.718-6.111c0.359-1.31,1.559-2.444,3.119-3.055
		c1.679-0.699,5.397-1.397,6.716,0.087c0.84,0.873-0.12,2.095-0.72,2.619c-0.599,0.524-2.398,1.484-3.118,1.31
		c0.719-0.087,1.919-0.873,2.638-1.571c0.72-0.699,1.2-2.008-0.359-2.27c-2.519-0.524-5.758,0.786-6.357,2.619
		c-0.72,2.62,3.598,3.841,4.678,6.024c0.959-0.087,1.919-0.087,2.878-0.087C114.633,23.779,119.551,24.041,119.431,24.39z
		 M108.756,24.739c-4.558,0.873-9.116,2.532-11.994,5.238c-1.2,1.048-3.239,3.405-1.8,4.452c0.84,0.612,2.399,0.524,3.239,0.437
		c1.199-0.087,2.399-0.437,3.479-0.786c4.317-1.484,8.156-4.452,7.556-8.207C109.116,25.438,108.996,25.089,108.756,24.739z"/>
</g>
<g>
	<g>
		<path fill="#646E7F" d="M55.159,54.271h-1.343V40.29h1.343v1.6h0.059c0.382-0.606,0.892-1.063,1.53-1.373
			c0.639-0.309,1.287-0.464,1.945-0.464c0.724,0,1.379,0.125,1.965,0.375c0.585,0.25,1.085,0.592,1.5,1.027s0.737,0.948,0.968,1.541
			s0.346,1.231,0.346,1.915c0,0.685-0.115,1.323-0.346,1.916s-0.553,1.106-0.968,1.54c-0.415,0.435-0.915,0.777-1.5,1.027
			c-0.586,0.25-1.241,0.375-1.965,0.375c-0.658,0-1.306-0.155-1.945-0.464c-0.638-0.309-1.148-0.753-1.53-1.333h-0.059V54.271z
			 M62.049,44.911c0-0.513-0.079-0.998-0.236-1.451c-0.158-0.455-0.385-0.85-0.681-1.186c-0.296-0.335-0.662-0.603-1.096-0.799
			c-0.435-0.198-0.928-0.296-1.481-0.296c-0.513,0-0.987,0.096-1.422,0.286c-0.435,0.191-0.81,0.455-1.125,0.791
			c-0.316,0.335-0.563,0.73-0.74,1.184C55.089,43.894,55,44.384,55,44.911c0,0.527,0.089,1.017,0.267,1.471
			c0.177,0.455,0.424,0.847,0.74,1.175c0.316,0.329,0.691,0.589,1.125,0.78c0.435,0.192,0.909,0.287,1.422,0.287
			c0.553,0,1.046-0.095,1.481-0.287c0.435-0.19,0.8-0.454,1.096-0.79c0.296-0.336,0.523-0.73,0.681-1.185
			C61.971,45.908,62.049,45.424,62.049,44.911z"/>
		<path fill="#646E7F" d="M66.809,41.81c0.25-0.54,0.665-0.967,1.244-1.283c0.579-0.316,1.198-0.474,1.857-0.474
			c1.17,0,2.05,0.349,2.636,1.047c0.585,0.698,0.878,1.619,0.878,2.764v5.667h-1.342v-5.114c0-0.486-0.041-0.928-0.119-1.323
			c-0.08-0.395-0.214-0.734-0.405-1.017c-0.191-0.283-0.448-0.503-0.77-0.662c-0.323-0.158-0.728-0.237-1.215-0.237
			c-0.355,0-0.701,0.072-1.036,0.217s-0.636,0.366-0.899,0.662c-0.263,0.296-0.473,0.671-0.632,1.125
			c-0.158,0.454-0.236,0.991-0.236,1.609v4.739h-1.343V34.603h1.343v7.208H66.809z"/>
		<path fill="#646E7F" d="M85.113,44.911c0,0.698-0.122,1.343-0.365,1.935c-0.243,0.593-0.583,1.106-1.017,1.54
			c-0.435,0.435-0.955,0.773-1.56,1.017c-0.606,0.244-1.271,0.366-1.995,0.366c-0.711,0-1.369-0.122-1.975-0.366
			c-0.605-0.244-1.125-0.583-1.56-1.017c-0.434-0.434-0.773-0.947-1.017-1.54c-0.244-0.592-0.365-1.237-0.365-1.935
			s0.121-1.342,0.365-1.936c0.244-0.592,0.583-1.105,1.017-1.54c0.435-0.434,0.955-0.773,1.56-1.017
			c0.606-0.244,1.264-0.365,1.975-0.365c0.724,0,1.389,0.122,1.995,0.365c0.605,0.244,1.125,0.583,1.56,1.017
			c0.434,0.435,0.773,0.948,1.017,1.54C84.992,43.568,85.113,44.213,85.113,44.911z M83.691,44.911c0-0.513-0.082-0.998-0.246-1.451
			c-0.165-0.455-0.399-0.85-0.701-1.186c-0.303-0.335-0.672-0.603-1.106-0.799c-0.434-0.198-0.921-0.296-1.461-0.296
			s-1.023,0.098-1.451,0.296c-0.429,0.197-0.794,0.464-1.097,0.799c-0.302,0.335-0.536,0.73-0.701,1.186
			c-0.165,0.453-0.247,0.938-0.247,1.451s0.082,0.997,0.247,1.451c0.165,0.455,0.398,0.849,0.701,1.185
			c0.303,0.336,0.668,0.599,1.097,0.79c0.427,0.192,0.911,0.287,1.451,0.287s1.027-0.095,1.461-0.287
			c0.435-0.19,0.803-0.454,1.106-0.79c0.302-0.336,0.536-0.73,0.701-1.185C83.609,45.908,83.691,45.424,83.691,44.911z"/>
		<path fill="#646E7F" d="M91.195,41.416h-2.607v5.391c0,0.343,0.033,0.626,0.1,0.849c0.065,0.224,0.161,0.398,0.287,0.523
			c0.124,0.125,0.272,0.211,0.443,0.256c0.171,0.047,0.356,0.069,0.553,0.069c0.184,0,0.378-0.026,0.583-0.079
			c0.204-0.052,0.397-0.125,0.583-0.217l0.059,1.165c-0.237,0.092-0.484,0.161-0.74,0.207s-0.537,0.07-0.84,0.07
			c-0.25,0-0.513-0.034-0.79-0.099c-0.277-0.066-0.533-0.19-0.771-0.375c-0.237-0.185-0.431-0.435-0.582-0.751
			c-0.151-0.315-0.227-0.73-0.227-1.244v-5.766h-1.916V40.29h1.916v-2.606h1.342v2.606h2.607V41.416z"/>
		<path fill="#646E7F" d="M101.503,44.911c0,0.698-0.123,1.343-0.366,1.935c-0.245,0.593-0.583,1.106-1.017,1.54
			c-0.435,0.435-0.954,0.773-1.56,1.017c-0.606,0.244-1.271,0.366-1.995,0.366c-0.711,0-1.369-0.122-1.975-0.366
			c-0.606-0.244-1.126-0.583-1.56-1.017c-0.435-0.434-0.773-0.947-1.018-1.54c-0.244-0.592-0.365-1.237-0.365-1.935
			s0.122-1.342,0.365-1.936c0.244-0.592,0.583-1.105,1.018-1.54c0.434-0.434,0.954-0.773,1.56-1.017
			c0.605-0.244,1.264-0.365,1.975-0.365c0.724,0,1.389,0.122,1.995,0.365s1.125,0.583,1.56,1.017
			c0.435,0.435,0.772,0.948,1.017,1.54C101.38,43.568,101.503,44.213,101.503,44.911z M100.081,44.911
			c0-0.513-0.083-0.998-0.247-1.451c-0.165-0.455-0.398-0.85-0.7-1.186c-0.304-0.335-0.672-0.603-1.106-0.799
			c-0.435-0.198-0.921-0.296-1.461-0.296s-1.024,0.098-1.451,0.296c-0.428,0.197-0.793,0.464-1.096,0.799
			c-0.303,0.335-0.536,0.73-0.701,1.186c-0.165,0.453-0.248,0.938-0.248,1.451s0.083,0.997,0.248,1.451
			c0.165,0.455,0.397,0.849,0.701,1.185c0.303,0.336,0.668,0.599,1.096,0.79c0.427,0.192,0.911,0.287,1.451,0.287
			s1.027-0.095,1.461-0.287c0.434-0.19,0.802-0.454,1.106-0.79c0.302-0.336,0.535-0.73,0.7-1.185
			C99.998,45.908,100.081,45.424,100.081,44.911z"/>
		<path fill="#646E7F" d="M103.911,51.387c0.369,0.474,0.872,0.876,1.511,1.206c0.638,0.328,1.313,0.493,2.024,0.493
			c0.659,0,1.218-0.096,1.678-0.286c0.461-0.191,0.833-0.452,1.115-0.78c0.283-0.33,0.491-0.715,0.623-1.156
			c0.132-0.441,0.198-0.912,0.198-1.412v-1.738h-0.04c-0.355,0.58-0.858,1.027-1.51,1.343c-0.652,0.316-1.314,0.474-1.984,0.474
			c-0.724,0-1.379-0.118-1.965-0.355c-0.585-0.237-1.086-0.563-1.501-0.978c-0.414-0.415-0.737-0.911-0.967-1.49
			c-0.23-0.579-0.346-1.205-0.346-1.876c0-0.658,0.116-1.277,0.346-1.857c0.23-0.579,0.553-1.085,0.967-1.52
			c0.415-0.435,0.916-0.776,1.501-1.027c0.586-0.25,1.241-0.375,1.965-0.375c0.67,0,1.329,0.158,1.974,0.474
			c0.646,0.315,1.152,0.77,1.521,1.362h0.04v-1.6h1.342v9.163c0,0.5-0.069,1.033-0.207,1.599c-0.138,0.566-0.395,1.087-0.77,1.561
			c-0.375,0.474-0.886,0.868-1.531,1.184c-0.645,0.316-1.48,0.474-2.508,0.474c-0.855,0-1.671-0.165-2.448-0.494
			c-0.777-0.33-1.441-0.783-1.995-1.362L103.911,51.387z M104.168,44.792c0,0.487,0.079,0.948,0.237,1.382
			c0.158,0.435,0.385,0.817,0.681,1.145c0.296,0.33,0.662,0.59,1.096,0.78c0.435,0.191,0.929,0.286,1.481,0.286
			c0.514,0,0.988-0.085,1.421-0.256c0.436-0.171,0.81-0.415,1.126-0.731c0.315-0.315,0.563-0.693,0.741-1.135
			c0.177-0.441,0.267-0.931,0.267-1.471c0-0.486-0.089-0.948-0.267-1.381c-0.178-0.436-0.425-0.817-0.741-1.146
			c-0.316-0.328-0.691-0.593-1.126-0.79c-0.434-0.198-0.907-0.296-1.421-0.296c-0.552,0-1.046,0.098-1.481,0.296
			c-0.434,0.197-0.799,0.461-1.096,0.79c-0.296,0.329-0.523,0.71-0.681,1.146C104.248,43.844,104.168,44.306,104.168,44.792z"/>
		<path fill="#646E7F" d="M114.91,41.356c-0.013-0.396-0.032-0.751-0.059-1.066h1.285c0.026,0.25,0.045,0.527,0.058,0.829
			c0.013,0.304,0.021,0.553,0.021,0.751h0.039c0.263-0.54,0.659-0.978,1.185-1.313c0.527-0.336,1.119-0.504,1.777-0.504
			c0.171,0,0.327,0.006,0.464,0.019c0.138,0.014,0.28,0.04,0.425,0.08l-0.177,1.283c-0.079-0.026-0.211-0.053-0.395-0.079
			c-0.184-0.026-0.369-0.04-0.553-0.04c-0.356,0-0.698,0.065-1.027,0.197c-0.329,0.132-0.615,0.338-0.858,0.621
			c-0.244,0.282-0.441,0.643-0.592,1.083c-0.152,0.44-0.227,0.968-0.227,1.586v4.728h-1.343v-7.208
			C114.93,42.074,114.923,41.751,114.91,41.356z"/>
		<path fill="#646E7F" d="M126.659,43.55c0-0.797-0.21-1.392-0.632-1.784s-1.033-0.588-1.836-0.588c-0.552,0-1.066,0.098-1.54,0.296
			c-0.475,0.197-0.876,0.461-1.205,0.79l-0.75-0.889c0.382-0.382,0.885-0.697,1.51-0.948c0.626-0.25,1.333-0.375,2.123-0.375
			c0.5,0,0.968,0.069,1.402,0.208c0.434,0.138,0.816,0.345,1.146,0.622s0.585,0.625,0.77,1.047s0.276,0.915,0.276,1.481v4.047
			c0,0.355,0.014,0.724,0.04,1.105c0.027,0.383,0.066,0.705,0.119,0.968h-1.205c-0.04-0.223-0.073-0.467-0.099-0.73
			c-0.027-0.263-0.04-0.52-0.04-0.77h-0.04c-0.421,0.619-0.898,1.063-1.431,1.333c-0.534,0.27-1.174,0.405-1.925,0.405
			c-0.355,0-0.721-0.05-1.096-0.148c-0.375-0.099-0.718-0.261-1.026-0.485c-0.31-0.225-0.566-0.515-0.771-0.873
			c-0.205-0.356-0.306-0.792-0.306-1.307c0-0.713,0.18-1.278,0.543-1.695c0.361-0.416,0.845-0.726,1.452-0.931
			c0.605-0.205,1.299-0.337,2.082-0.397c0.783-0.059,1.596-0.089,2.438-0.089V43.55z M126.264,44.911
			c-0.553,0-1.109,0.023-1.668,0.069c-0.56,0.046-1.066,0.139-1.521,0.276c-0.454,0.139-0.826,0.339-1.115,0.603
			c-0.29,0.263-0.434,0.612-0.434,1.047c0,0.329,0.062,0.606,0.187,0.829c0.125,0.224,0.294,0.405,0.504,0.543
			c0.21,0.138,0.444,0.237,0.701,0.296c0.257,0.059,0.517,0.089,0.78,0.089c0.474,0,0.896-0.082,1.265-0.247
			c0.367-0.164,0.677-0.388,0.928-0.671c0.25-0.283,0.44-0.608,0.573-0.977c0.131-0.368,0.196-0.757,0.196-1.166v-0.69H126.264z"/>
		<path fill="#646E7F" d="M131.754,54.271h-1.343V40.29h1.343v1.6h0.058c0.383-0.606,0.892-1.063,1.532-1.373
			c0.638-0.309,1.286-0.464,1.944-0.464c0.726,0,1.378,0.125,1.966,0.375c0.586,0.25,1.085,0.592,1.5,1.027s0.738,0.948,0.968,1.541
			s0.345,1.231,0.345,1.915c0,0.685-0.114,1.323-0.345,1.916s-0.553,1.106-0.968,1.54c-0.415,0.435-0.914,0.777-1.5,1.027
			c-0.587,0.25-1.24,0.375-1.966,0.375c-0.658,0-1.306-0.155-1.944-0.464c-0.64-0.309-1.149-0.753-1.532-1.333h-0.058V54.271z
			 M138.644,44.911c0-0.513-0.078-0.998-0.236-1.451c-0.157-0.455-0.385-0.85-0.68-1.186c-0.297-0.335-0.662-0.603-1.097-0.799
			c-0.434-0.198-0.929-0.296-1.48-0.296c-0.513,0-0.988,0.096-1.422,0.286c-0.434,0.191-0.81,0.455-1.125,0.791
			c-0.315,0.335-0.563,0.73-0.74,1.184c-0.177,0.455-0.267,0.945-0.267,1.472c0,0.527,0.09,1.017,0.267,1.471
			c0.177,0.455,0.425,0.847,0.74,1.175c0.315,0.329,0.692,0.589,1.125,0.78c0.434,0.192,0.909,0.287,1.422,0.287
			c0.552,0,1.046-0.095,1.48-0.287c0.436-0.19,0.8-0.454,1.097-0.79c0.295-0.336,0.523-0.73,0.68-1.185
			C138.566,45.908,138.644,45.424,138.644,44.911z"/>
		<path fill="#646E7F" d="M143.405,41.81c0.249-0.54,0.663-0.967,1.243-1.283c0.579-0.316,1.198-0.474,1.856-0.474
			c1.171,0,2.05,0.349,2.636,1.047c0.586,0.698,0.879,1.619,0.879,2.764v5.667h-1.342v-5.114c0-0.486-0.041-0.928-0.118-1.323
			c-0.08-0.395-0.215-0.734-0.406-1.017s-0.448-0.503-0.769-0.662c-0.324-0.158-0.729-0.237-1.214-0.237
			c-0.355,0-0.702,0.072-1.038,0.217c-0.333,0.145-0.634,0.366-0.896,0.662c-0.264,0.296-0.475,0.671-0.633,1.125
			c-0.158,0.454-0.237,0.991-0.237,1.609v4.739h-1.343V34.603h1.343v7.208H143.405z"/>
		<path fill="#646E7F" d="M155.706,48.09h0.039l2.865-7.8h1.461l-4.602,11.63c-0.277,0.711-0.629,1.281-1.057,1.708
			c-0.428,0.428-1.045,0.643-1.846,0.643c-0.41,0-0.811-0.04-1.206-0.119l0.139-1.224c0.315,0.105,0.645,0.158,0.988,0.158
			c0.46,0,0.822-0.142,1.085-0.424c0.263-0.284,0.494-0.688,0.691-1.214l0.75-1.936l-3.95-9.222h1.503L155.706,48.09z"/>
	</g>
</g>
<text transform="matrix(1 0 0 1 7.4565 -18.6196)" font-family="'AvenirNext-Regular'" font-size="19.7351">photography</text>
</svg>
