<?xml version="1.0" encoding="utf-8"?>
<!-- Generator: Adobe Illustrator 16.0.0, SVG Export Plug-In . SVG Version: 6.00 Build 0)  -->
<!DOCTYPE svg PUBLIC "-//W3C//DTD SVG 1.1//EN" "http://www.w3.org/Graphics/SVG/1.1/DTD/svg11.dtd">
<svg version="1.1" id="Layer_1" xmlns="http://www.w3.org/2000/svg" xmlns:xlink="http://www.w3.org/1999/xlink" x="0px" y="0px"
	 width="550px" height="190.722px" viewBox="0 0 550 190.722" enable-background="new 0 0 550 190.722" xml:space="preserve">
<g>
	<path opacity="0.4" fill-rule="evenodd" clip-rule="evenodd" fill="#FFFFFF" d="M138.953,108.019
		C144.267,65.938,126.467,32.056,101.627,0c6.152,1.131,12.36,2.043,18.452,3.441c16.331,3.743,30.882,11.041,43.359,22.339
		c1.915,1.736,2.941,3.52,2.765,6.404c-1.085,17.428-4.246,34.375-11.11,50.5C151.152,91.944,146.087,100.556,138.953,108.019z"/>
	<path opacity="0.8" fill-rule="evenodd" clip-rule="evenodd" fill="#FFFFFF" d="M88.198,190.103
		c-15.227-1.579-29.133-5.067-41.396-13.338c-6.71-4.533-13.131-9.502-19.557-14.438c-0.933-0.714-1.698-2.396-1.619-3.565
		c1.582-22.857,7.535-44.433,19.517-64.111c2.262-3.709,5.189-7.013,8.293-10.43C50.799,124.131,62.688,159.137,88.198,190.103z"/>
	<path opacity="0.3" fill-rule="evenodd" clip-rule="evenodd" fill="#FFFFFF" d="M170.466,33.529c2.63,3.236,5.108,5.85,7.088,8.794
		c10.865,16.142,16.411,33.94,16.35,53.456c-0.005,1.93-0.702,3.109-2.213,4.278c-10.308,7.956-20.821,15.581-32.523,21.401
		c-9.402,4.674-19.45,7.385-29.662,9.557c-3.587,0.76-7.217,1.312-11.582,2.099C152.553,108.649,165.422,73.531,170.466,33.529z"/>
	<path opacity="0.2" fill-rule="evenodd" clip-rule="evenodd" fill="#FFFFFF" d="M193.234,103.857
		c-0.389,8.413-2.095,15.726-4.448,22.92c-4.729,14.441-13.571,26.172-24.139,36.797c-1.519,1.525-2.957,1.901-5.063,1.567
		c-6.619-1.035-13.31-1.614-19.911-2.748c-11.68-2.005-22.806-5.766-33.146-11.604c-6.781-3.832-13.441-7.885-20.082-12.151
		c19.285,0.285,38.195-1.503,56.668-6.949C161.626,126.23,178.435,117.686,193.234,103.857z"/>
	<path opacity="0.6" fill-rule="evenodd" clip-rule="evenodd" fill="#FFFFFF" d="M0.143,88.295
		c0.784-4.548,1.388-9.135,2.401-13.633c2.451-10.904,6.196-21.364,12.94-30.374c4.28-5.716,9.29-10.898,14.064-16.232
		c0.583-0.656,1.795-1.165,2.662-1.091c11.748,0.981,23.351,2.714,34.68,6.172c14.063,4.295,26.678,11.37,38.744,19.562
		c0.468,0.316,0.891,0.685,1.718,1.329C66.551,49.979,31.782,63.3,0.143,88.295z"/>
	<path opacity="0.9" fill-rule="evenodd" clip-rule="evenodd" fill="#FFFFFF" d="M157.01,169.163
		c-3.5,2.265-6.971,4.568-10.498,6.788c-12.031,7.56-24.76,13.326-39.114,14.549c-4.276,0.367-8.619,0.22-12.916-0.022
		c-1.212-0.067-2.74-1.019-3.483-2.032c-5.251-7.154-10.702-14.2-15.376-21.722c-5.961-9.595-10.692-19.874-13.698-30.813
		c-1.408-5.12-2.208-10.409-2.932-15.819C86.18,147.468,117.965,165.074,157.01,169.163z"/>
	<path opacity="0.7" fill-rule="evenodd" clip-rule="evenodd" fill="#FFFFFF" d="M21.017,155.733
		c-3.534-5.855-7.336-11.563-10.549-17.593C3.697,125.445,0.566,111.76,0.005,97.4c-0.125-3.217,2.032-4.617,3.826-6.257
		c10.729-9.797,22.773-17.696,36.016-23.647c10.12-4.549,20.663-7.869,32.351-9.083C42.972,84.542,25.947,116.54,22.496,155.51
		C22.002,155.583,21.511,155.657,21.017,155.733z"/>
	<path opacity="0.5" fill-rule="evenodd" clip-rule="evenodd" fill="#FFFFFF" d="M35.105,22.716
		c4.128-2.851,8.209-5.774,12.394-8.543C61.48,4.917,77.211,1.416,93.649,0.355c0.896-0.057,2.074,0.346,2.716,0.959
		c8.874,8.443,15.857,18.323,21.839,28.959c6.978,12.403,12.194,25.486,15.229,39.415c0.122,0.535,0.164,1.089,0.375,2.545
		C106.85,43.178,74.194,27.266,35.572,23.577C35.416,23.288,35.26,23.003,35.105,22.716z"/>
	<path fill="#FFFFFF" d="M362.055,26.116c0.003,0,0.007,0,0.012,0c0.213,0,0.43,0.353,0.649,0.353c3.67,0,7.681-2.498,9.613-5.034
		c1.211-1.764,1.501-3.464,0.793-4.808c-0.618-1.18-1.918-1.815-3.56-1.815c-3.666,0-8.047,2.373-10.162,5.458
		c-1.267,1.659-1.63,3.033-0.993,4.316C358.749,25.275,359.684,26.116,362.055,26.116z"/>
	<path fill="#FFFFFF" d="M411.038,83.17c-1.248-1.747-18.638-2.324-18.809-2.324c-3.075,0-6.249,0-9.398,0.255
		c-1.067-1.877-2.775-3.532-4.656-5.102c2.933-2.351,5.893-4.953,5.891-5.896l-0.045,0.466l-0.687,0.546h-0.28
		c-0.923,0-4.4,1.219-7.777,3.567c-0.097-0.07-0.19-0.644-0.284-0.716c-4.751-3.627-9.239-7.302-7.908-12.144
		c1.559-4.773,9.333-8.931,16.974-8.931c1.354,0,2.657,0.065,3.908,0.325c1.547,0.26,2.472,0.807,2.747,1.69
		c0.424,1.362-0.668,3.338-1.968,4.6c-2.343,2.275-6.346,4.885-8.57,5.155l-4.694,0.568l4.596,1.115
		c2.849,0.685,9.41-2.879,11.479-4.689c0.626-0.545,3.755-3.431,3.897-6.691c0.059-1.353-0.4-2.545-1.344-3.525
		c-1.95-2.193-5.302-3.305-9.965-3.305c-5.113,0-10.758,1.397-14.068,2.775c-5.75,2.251-9.947,6.391-11.237,11.1
		c-1.562,6.58,3.162,11.333,7.729,15.928c0.415,0.416,0.825,0.844,1.24,1.269l-10.082,6.931
		c-14.253,4.585-25.56,11.229-32.522,19.339c-0.523,0.667-1.133,1.515-1.725,2.463c-0.703,0.397-1.423,0.817-2.118,1.203
		c-1.006,0.523-2.088,1.119-3.229,1.747c-4.815,2.653-10.702,5.896-16.171,6.466c4.199-6.421,9.029-12.768,14.069-19.034
		c2.312-1.539,4.649-3.124,7.042-4.81c6.699-4.632,12.894-9.689,18.882-14.58c1.421-1.159,2.295-2.313,3.734-3.478
		c4.83-4.214,4.291-5.327,4.291-5.745v-0.436l0.484,1.844h-0.279c-0.531,0-0.946-1.088-24.529,16.68
		c1.029-1.22,2.055-3.021,3.079-4.232c7.179-8.502,14.601-17.58,21.005-26.413c0.093-0.201,0.264-0.577,0.443-0.834
		c0.662-0.948,1.662-2.453,0.722-3.824c-0.446-0.649-1.227-1.013-2.322-1.013c-1.078,0-2.313,0.3-3.131,0.51l-0.519,0.13
		c-4.012,1.592-7.496,4.222-10.662,8.062c-3.369,4.271-6.795,8.541-10.226,12.817c-7.947,9.909-16.079,20.104-23.56,30.362
		c-7.313,4.188-15.149,8.019-23.478,10.817c-5.776,1.733-11.912,3.424-17.817,3.424c-2.194,0-4.223-0.245-6.026-0.728
		c-2.426-0.663-4.171-2.497-5.147-5.317c-1.212-7.055,3.106-14.215,6.604-19.101c19.98-0.44,47.173-9.842,60.204-18.437
		c5.684-3.818,8.996-7.939,9.839-12.234c0.975-4.615-2.085-8.756-7.598-10.299c-1.587-0.481-3.399-0.725-5.384-0.725
		c-3.218,0-6.899,0.609-11.588,1.921c-18.972,5.461-46.216,21.973-56.536,37.863c-4.332,6.877-8.765,15.646-5.587,23.515
		c-12.194-1.4-25.948-1.31-42.97,0.339c-8.489,0.862-17.525,2.25-29.29,4.498c-5.05,0.918-10.122,1.98-15.025,3.005
		c-4.86,1.017-9.887,2.067-14.83,2.97c-0.211,0.025-0.647,0.096-1.236,0.191c-2.085,0.341-5.968,0.975-8.441,0.975
		c-0.579,0-0.959-0.037-1.206-0.077c6.035-8.476,15.562-15.306,25.624-22.127c14.802-10.124,30.336-18.915,47.652-28.543
		l49.325-27.926c15.333-8.929,30.756-16.771,47.085-25.072l1.911-0.973c0.131-0.057,3.207-1.421,3.393-3.138
		c0.037-0.337-0.009-0.933-0.718-1.452c-0.905-0.657-2.181-0.613-3.227-0.613c-0.01,0-0.02,0-0.032,0
		c-13.353,0-26.802,1.224-38.202,2.281c-8.51,0.845-19.631,2.018-30.194,3.808c-11.188,1.936-20.349,4.221-27.989,6.999
		c-4.805,1.658-8.822,3.528-12.323,5.761c-2.453,1.786-7.02,5.104-6.74,8.953c0.155,1.126,0.918,1.824,1.992,1.824
		c0.832,0,1.811-0.423,2.61-1.123l0.463-0.393c1.249-1.058,2.662-2.254,3.687-3.3c5.654-5.431,18.174-10.404,25.208-12.421
		c11.67-3.278,24.914-5.607,40.505-7.121c6.219-0.729,13.22-1.273,21.402-1.658l0.787-0.037c5.484-0.267,10.633-0.495,16.039-0.503
		c-3.664,1.928-7.602,3.582-11.438,5.192c-3.372,1.416-6.86,2.881-10.126,4.511c-15.786,7.218-31.985,15.678-50.976,26.624
		c-15.553,8.803-32.209,18.339-48.664,28.436c-15.244,9.607-31.004,19.541-43.519,31.518l-0.273,0.265
		c-2.747,2.666-5.589,5.424-7.174,8.559c-0.592,1.003-0.782,2.031-0.534,2.895c0.151,0.525,0.545,1.264,1.604,1.811
		c0.914,0.416,2.087,0.617,3.587,0.617c0.985,0,1.99-0.083,2.899-0.163l0.596-0.05c5.229-0.649,10.615-1.78,15.822-2.875
		c4.178-0.875,8.497-1.783,12.778-2.453c22.883-4.616,40.651-6.864,57.626-7.293c8.127-0.304,16.054-0.067,24.542,0.646
		c3.427,4.243,8.726,6.394,15.792,6.394c9.436,0,19.789-3.904,25.111-6.226c4.852-2.045,9.684-4.349,14.578-6.934
		c-1.764,3.203-2.446,5.83-1.939,7.917c0.354,1.458,1.248,2.624,2.636,3.45c0.808,0.515,1.872,0.775,3.164,0.775
		c5.248,0,14.078-4.276,21.722-8.57c-0.098,0.862-0.107,1.725,0.08,2.562c0.45,2.013,1.782,3.585,3.939,4.666
		c2.582,1.377,6.063,2.077,10.349,2.077c3.902,0,8.392-0.554,13.74-1.698c14.23-3.273,31.067-11.521,35.644-24.839
		c1.526-4.164,1.4-8.548-0.351-12.747c2.452-0.188,4.952-0.188,7.786-0.188c0.37,0,2.156,0.082,4.467,0.186
		c4.385,0.2,10.386,0.473,12.722,0.473c0.904,0,1.758,0,1.803-0.851l0.074-0.342L411.038,83.17z M326.886,110.831
		c2.054-1.233,3.877-2.361,5.317-3.252c1.056-0.652,1.862-1.151,2.368-1.446c8.764-5.384,17.324-11.05,25.623-16.888
		c4.581-1.407,9.065-2.501,13.08-3.287c0.547,0.923,0.876,1.882,1.21,3.082c2.068,12.943-11.761,22.562-25.377,27.245
		c-3.752,1.211-7.77,2.371-11.779,2.662c-5.071,0.521-8.615,0.056-10.534-1.342c-0.859-0.624-1.299-1.421-1.344-2.433
		C325.395,113.922,325.962,112.408,326.886,110.831z M370.935,82.636c-0.8,0.167-1.547,0.376-2.334,0.554
		c0.57-0.419,1.146-0.835,1.713-1.256C370.517,82.17,370.744,82.398,370.935,82.636z M317.726,57.895
		c0.181,3.327-3.961,8.025-6.419,10.261c-12.514,10.798-30.682,16.462-43.718,19.312c-3.867,0.842-7.315,1.317-10.483,1.445
		c1.446-1.938,3.106-3.869,4.72-5.746c9.895-11.456,22.461-20.398,36.365-25.869c3.657-1.552,8.4-3.332,12.665-3.332
		c2.198,0,4.042,0.49,5.452,1.436C317.208,56.056,317.671,56.871,317.726,57.895z"/>
	<g>
		<g>
			<path fill="#FFFFFF" d="M189.524,186.472h-4.614v-48.037h4.614v5.496h0.201c1.312-2.082,3.065-3.652,5.258-4.716
				c2.194-1.062,4.421-1.594,6.682-1.594c2.488,0,4.74,0.429,6.753,1.289c2.012,0.86,3.73,2.035,5.156,3.528
				c1.426,1.493,2.533,3.258,3.325,5.293c0.792,2.035,1.188,4.229,1.188,6.58c0,2.352-0.396,4.546-1.188,6.582
				s-1.899,3.8-3.325,5.292c-1.426,1.493-3.144,2.669-5.156,3.528c-2.013,0.857-4.265,1.29-6.753,1.29
				c-2.261,0-4.488-0.532-6.682-1.595c-2.193-1.062-3.946-2.589-5.258-4.581h-0.201V186.472z M213.201,154.312
				c0-1.764-0.27-3.428-0.812-4.985c-0.542-1.563-1.323-2.921-2.34-4.073c-1.019-1.153-2.273-2.07-3.767-2.747
				c-1.493-0.681-3.189-1.018-5.088-1.018c-1.763,0-3.39,0.329-4.885,0.983c-1.493,0.656-2.782,1.562-3.867,2.716
				c-1.085,1.152-1.934,2.508-2.543,4.067c-0.61,1.562-0.916,3.248-0.916,5.057c0,1.81,0.306,3.495,0.916,5.053
				c0.609,1.562,1.458,2.909,2.543,4.038c1.085,1.131,2.374,2.025,3.867,2.68c1.495,0.659,3.123,0.984,4.885,0.984
				c1.899,0,3.595-0.326,5.088-0.984c1.494-0.655,2.749-1.559,3.767-2.713c1.017-1.154,1.798-2.508,2.34-4.072
				C212.931,157.738,213.201,156.075,213.201,154.312z"/>
			<path fill="#FFFFFF" d="M229.553,143.658c0.859-1.854,2.285-3.324,4.275-4.407c1.99-1.085,4.116-1.629,6.38-1.629
				c4.021,0,7.043,1.199,9.057,3.597c2.011,2.397,3.018,5.562,3.018,9.498v19.471h-4.612v-17.573c0-1.67-0.139-3.189-0.408-4.544
				c-0.273-1.357-0.734-2.521-1.391-3.495c-0.658-0.973-1.54-1.729-2.646-2.273c-1.11-0.543-2.501-0.813-4.176-0.813
				c-1.22,0-2.407,0.248-3.56,0.747c-1.152,0.498-2.185,1.256-3.088,2.273c-0.903,1.019-1.626,2.305-2.171,3.867
				c-0.542,1.559-0.812,3.404-0.812,5.528v16.284h-4.614v-51.295h4.614v24.765H229.553z"/>
			<path fill="#FFFFFF" d="M292.448,154.312c0,2.397-0.417,4.614-1.255,6.648c-0.835,2.037-2.003,3.8-3.493,5.292
				c-1.493,1.493-3.28,2.657-5.36,3.494c-2.082,0.839-4.367,1.257-6.854,1.257c-2.444,0-4.704-0.417-6.786-1.257
				c-2.079-0.837-3.864-2.001-5.358-3.494c-1.49-1.492-2.658-3.255-3.495-5.292c-0.837-2.035-1.253-4.251-1.253-6.648
				c0-2.397,0.416-4.612,1.253-6.651c0.837-2.035,2.004-3.796,3.495-5.291c1.495-1.492,3.28-2.656,5.358-3.494
				c2.082-0.837,4.342-1.254,6.786-1.254c2.486,0,4.771,0.417,6.854,1.254c2.081,0.837,3.867,2.002,5.36,3.494
				c1.49,1.495,2.658,3.256,3.493,5.291C292.03,149.7,292.448,151.915,292.448,154.312z M287.561,154.312
				c0-1.764-0.282-3.428-0.845-4.985c-0.567-1.563-1.371-2.921-2.408-4.073c-1.042-1.153-2.308-2.07-3.801-2.747
				c-1.49-0.681-3.165-1.018-5.02-1.018s-3.516,0.337-4.984,1.018c-1.473,0.676-2.728,1.594-3.77,2.747
				c-1.039,1.152-1.841,2.51-2.408,4.073c-0.567,1.557-0.847,3.221-0.847,4.985c0,1.763,0.28,3.426,0.847,4.986
				c0.567,1.564,1.369,2.918,2.408,4.072c1.042,1.154,2.297,2.059,3.77,2.713c1.468,0.659,3.129,0.984,4.984,0.984
				s3.53-0.326,5.02-0.984c1.493-0.655,2.76-1.559,3.801-2.713c1.037-1.154,1.841-2.508,2.408-4.072
				C287.279,157.738,287.561,156.075,287.561,154.312z"/>
			<path fill="#FFFFFF" d="M313.346,142.303h-8.958v18.522c0,1.178,0.114,2.151,0.342,2.917c0.225,0.77,0.553,1.369,0.985,1.799
				c0.424,0.43,0.936,0.725,1.523,0.881c0.589,0.161,1.223,0.238,1.901,0.238c0.631,0,1.3-0.091,2.001-0.272
				c0.7-0.18,1.364-0.428,2.001-0.745l0.203,4.003c-0.815,0.317-1.663,0.552-2.543,0.711c-0.881,0.16-1.844,0.24-2.886,0.24
				c-0.859,0-1.763-0.116-2.713-0.341c-0.951-0.227-1.832-0.654-2.647-1.289c-0.814-0.634-1.481-1.495-2-2.58
				c-0.52-1.084-0.778-2.508-0.778-4.275v-19.811h-6.583v-3.867h6.583v-8.956h4.61v8.956h8.958V142.303z"/>
			<path fill="#FFFFFF" d="M348.762,154.312c0,2.397-0.421,4.614-1.256,6.648c-0.842,2.037-2.003,3.8-3.496,5.292
				c-1.493,1.493-3.276,2.657-5.359,3.494c-2.082,0.839-4.367,1.257-6.853,1.257c-2.443,0-4.704-0.417-6.785-1.257
				c-2.082-0.837-3.869-2.001-5.359-3.494c-1.493-1.492-2.657-3.255-3.496-5.292c-0.837-2.035-1.255-4.251-1.255-6.648
				c0-2.397,0.418-4.612,1.255-6.651c0.839-2.035,2.003-3.796,3.496-5.291c1.49-1.492,3.277-2.656,5.359-3.494
				c2.081-0.837,4.342-1.254,6.785-1.254c2.486,0,4.771,0.417,6.853,1.254c2.083,0.837,3.866,2.002,5.359,3.494
				c1.493,1.495,2.654,3.256,3.496,5.291C348.341,149.7,348.762,151.915,348.762,154.312z M343.875,154.312
				c0-1.764-0.283-3.428-0.849-4.985c-0.567-1.563-1.367-2.921-2.406-4.073c-1.043-1.153-2.31-2.07-3.8-2.747
				c-1.493-0.681-3.166-1.018-5.021-1.018s-3.518,0.337-4.986,1.018c-1.47,0.676-2.726,1.594-3.767,2.747
				c-1.042,1.152-1.842,2.51-2.407,4.073c-0.567,1.557-0.851,3.221-0.851,4.985c0,1.763,0.283,3.426,0.851,4.986
				c0.565,1.564,1.365,2.918,2.407,4.072c1.041,1.154,2.297,2.059,3.767,2.713c1.468,0.659,3.131,0.984,4.986,0.984
				s3.528-0.326,5.021-0.984c1.49-0.655,2.757-1.559,3.8-2.713c1.039-1.154,1.839-2.508,2.406-4.072
				C343.592,157.738,343.875,156.075,343.875,154.312z"/>
			<path fill="#FFFFFF" d="M357.037,176.565c1.267,1.629,2.996,3.01,5.192,4.143c2.193,1.127,4.512,1.694,6.955,1.694
				c2.263,0,4.184-0.329,5.766-0.983c1.584-0.656,2.862-1.552,3.832-2.679c0.974-1.133,1.688-2.458,2.139-3.971
				c0.453-1.517,0.68-3.132,0.68-4.851v-5.973h-0.137c-1.222,1.993-2.95,3.528-5.188,4.614c-2.24,1.087-4.515,1.629-6.817,1.629
				c-2.488,0-4.74-0.406-6.753-1.22c-2.012-0.815-3.733-1.934-5.159-3.36c-1.423-1.426-2.532-3.131-3.322-5.121
				c-0.792-1.99-1.189-4.141-1.189-6.446c0-2.261,0.397-4.389,1.189-6.38c0.79-1.99,1.899-3.729,3.322-5.223
				c1.426-1.493,3.147-2.667,5.159-3.528c2.013-0.859,4.265-1.289,6.753-1.289c2.303,0,4.566,0.543,6.78,1.629
				c2.22,1.083,3.96,2.646,5.226,4.681h0.137v-5.496h4.612v31.482c0,1.718-0.237,3.55-0.711,5.493
				c-0.476,1.947-1.358,3.735-2.645,5.364c-1.288,1.627-3.043,2.983-5.261,4.068c-2.217,1.087-5.087,1.629-8.617,1.629
				c-2.938,0-5.743-0.567-8.412-1.696c-2.672-1.132-4.953-2.689-6.855-4.681L357.037,176.565z M357.921,153.904
				c0,1.674,0.271,3.256,0.813,4.75c0.541,1.495,1.324,2.807,2.34,3.934c1.019,1.132,2.275,2.027,3.765,2.681
				c1.495,0.656,3.191,0.983,5.089,0.983c1.767,0,3.395-0.292,4.885-0.881c1.496-0.587,2.783-1.426,3.87-2.514
				c1.083-1.083,1.935-2.382,2.545-3.899c0.609-1.515,0.916-3.198,0.916-5.055c0-1.671-0.307-3.257-0.916-4.747
				c-0.61-1.497-1.462-2.807-2.545-3.938c-1.087-1.127-2.374-2.037-3.87-2.713c-1.49-0.681-3.118-1.018-4.885-1.018
				c-1.897,0-3.594,0.337-5.089,1.018c-1.489,0.676-2.746,1.585-3.765,2.713c-1.016,1.131-1.799,2.441-2.34,3.938
				C358.193,150.647,357.921,152.233,357.921,153.904z"/>
			<path fill="#FFFFFF" d="M394.828,142.1c-0.045-1.359-0.11-2.58-0.203-3.664h4.414c0.089,0.859,0.156,1.81,0.199,2.849
				c0.046,1.043,0.071,1.899,0.071,2.581h0.132c0.904-1.855,2.264-3.361,4.072-4.511c1.81-1.154,3.845-1.731,6.105-1.731
				c0.589,0,1.122,0.021,1.595,0.065c0.476,0.049,0.962,0.138,1.46,0.275l-0.609,4.408c-0.271-0.089-0.727-0.182-1.356-0.271
				c-0.633-0.09-1.267-0.136-1.9-0.136c-1.225,0-2.4,0.225-3.53,0.676c-1.13,0.455-2.113,1.163-2.95,2.134
				c-0.837,0.97-1.515,2.208-2.035,3.721c-0.521,1.513-0.78,3.327-0.78,5.449v16.244h-4.615v-24.765
				C394.896,144.564,394.875,143.455,394.828,142.1z"/>
			<path fill="#FFFFFF" d="M435.197,149.638c0-2.738-0.723-4.781-2.171-6.129c-1.448-1.347-3.551-2.02-6.31-2.02
				c-1.897,0-3.665,0.337-5.29,1.018c-1.631,0.676-3.01,1.585-4.139,2.713l-2.579-3.054c1.312-1.312,3.04-2.396,5.189-3.256
				c2.15-0.859,4.58-1.289,7.293-1.289c1.718,0,3.325,0.236,4.818,0.713c1.491,0.473,2.805,1.185,3.936,2.136
				s2.012,2.149,2.645,3.597s0.949,3.145,0.949,5.09v13.907c0,1.222,0.047,2.488,0.137,3.798c0.092,1.315,0.226,2.422,0.408,3.325
				h-4.139c-0.136-0.767-0.25-1.605-0.339-2.51c-0.092-0.902-0.137-1.787-0.137-2.646h-0.137c-1.447,2.125-3.085,3.652-4.917,4.58
				c-1.834,0.926-4.035,1.391-6.615,1.391c-1.22,0-2.477-0.173-3.767-0.51c-1.29-0.34-2.468-0.897-3.526-1.667
				c-1.065-0.771-1.946-1.77-2.647-2.998c-0.703-1.223-1.051-2.72-1.051-4.49c0-2.451,0.619-4.392,1.866-5.823
				c1.241-1.429,2.903-2.495,4.989-3.197c2.079-0.705,4.465-1.158,7.153-1.364c2.691-0.203,5.485-0.306,8.379-0.306V149.638z
				 M433.841,154.312c-1.899,0-3.812,0.079-5.732,0.238c-1.923,0.158-3.663,0.477-5.227,0.948c-1.559,0.477-2.837,1.166-3.832,2.07
				c-0.996,0.904-1.489,2.102-1.489,3.597c0,1.129,0.213,2.082,0.641,2.849c0.428,0.77,1.01,1.393,1.731,1.865
				c0.723,0.475,1.526,0.816,2.407,1.019c0.884,0.203,1.776,0.305,2.68,0.305c1.629,0,3.078-0.282,4.345-0.849
				c1.262-0.564,2.328-1.334,3.188-2.307c0.859-0.973,1.513-2.091,1.97-3.357c0.449-1.265,0.674-2.603,0.674-4.007v-2.372H433.841z"
				/>
			<path fill="#FFFFFF" d="M452.705,186.472h-4.614v-48.037h4.614v5.496h0.199c1.315-2.082,3.063-3.652,5.263-4.716
				c2.192-1.062,4.419-1.594,6.679-1.594c2.493,0,4.736,0.429,6.755,1.289c2.014,0.86,3.729,2.035,5.154,3.528
				s2.535,3.258,3.327,5.293c0.791,2.035,1.184,4.229,1.184,6.58c0,2.352-0.393,4.546-1.184,6.582
				c-0.792,2.035-1.901,3.8-3.327,5.292c-1.426,1.493-3.141,2.669-5.154,3.528c-2.019,0.857-4.262,1.29-6.755,1.29
				c-2.26,0-4.486-0.532-6.679-1.595c-2.199-1.062-3.947-2.589-5.263-4.581h-0.199V186.472z M476.378,154.312
				c0-1.764-0.267-3.428-0.812-4.985c-0.538-1.563-1.322-2.921-2.337-4.073c-1.021-1.153-2.273-2.07-3.77-2.747
				c-1.491-0.681-3.191-1.018-5.087-1.018c-1.762,0-3.395,0.329-4.886,0.983c-1.49,0.656-2.783,1.562-3.867,2.716
				c-1.083,1.152-1.935,2.508-2.544,4.067c-0.608,1.562-0.917,3.248-0.917,5.057c0,1.81,0.309,3.495,0.917,5.053
				c0.609,1.562,1.461,2.909,2.544,4.038c1.084,1.131,2.377,2.025,3.867,2.68c1.491,0.659,3.124,0.984,4.886,0.984
				c1.896,0,3.596-0.326,5.087-0.984c1.496-0.655,2.749-1.559,3.77-2.713c1.015-1.154,1.799-2.508,2.337-4.072
				C476.112,157.738,476.378,156.075,476.378,154.312z"/>
			<path fill="#FFFFFF" d="M492.738,143.658c0.855-1.854,2.278-3.324,4.27-4.407c1.99-1.085,4.118-1.629,6.379-1.629
				c4.024,0,7.045,1.199,9.056,3.597c2.015,2.397,3.021,5.562,3.021,9.498v19.471h-4.611v-17.573c0-1.67-0.14-3.189-0.407-4.544
				c-0.274-1.357-0.739-2.521-1.396-3.495c-0.655-0.973-1.54-1.729-2.643-2.273c-1.112-0.543-2.503-0.813-4.172-0.813
				c-1.222,0-2.411,0.248-3.567,0.747c-1.146,0.498-2.179,1.256-3.08,2.273c-0.906,1.019-1.632,2.305-2.174,3.867
				c-0.544,1.559-0.814,3.404-0.814,5.528v16.284h-4.613v-51.295h4.613v24.765H492.738z"/>
			<path fill="#FFFFFF" d="M535,165.235h0.135l9.845-26.8H550l-15.811,39.961c-0.954,2.443-2.161,4.401-3.631,5.867
				c-1.471,1.472-3.591,2.208-6.343,2.208c-1.408,0-2.784-0.136-4.144-0.409l0.477-4.205c1.084,0.36,2.215,0.543,3.396,0.543
				c1.581,0,2.826-0.487,3.729-1.458c0.902-0.975,1.698-2.365,2.375-4.172l2.577-6.65l-13.572-31.686h5.163L535,165.235z"/>
		</g>
	</g>
</g>
</svg>
